<?xml version="1.0" encoding="UTF-8"?>
<svg width="112px" height="37px" viewBox="0 0 112 37" version="1.1" xmlns="http://www.w3.org/2000/svg" xmlns:xlink="http://www.w3.org/1999/xlink">
    <!-- Generator: Sketch 43.1 (39012) - http://www.bohemiancoding.com/sketch -->
    <title>logo-pink</title>
    <desc>Created with Sketch.</desc>
    <defs>
        <polygon id="path-1" points="0 39.3548387 111.651699 39.3548387 111.651699 0.123225806 0 0.123225806"></polygon>
        <path d="M0.518566474,2.30967742 C0.518566474,3.55677419 1.53304046,4.56774194 2.78446243,4.56774194 C4.03588439,4.56774194 5.05035838,3.55677419 5.05035838,2.30967742 C5.05035838,1.06258065 4.03588439,0.0509677419 2.78446243,0.0509677419 C1.53304046,0.0509677419 0.518566474,1.06258065 0.518566474,2.30967742 Z" id="path-3"></path>
        <path d="M0.518566474,2.60193548 C0.518566474,3.84967742 1.53304046,4.86 2.78446243,4.86 C4.03588439,4.86 5.05035838,3.84967742 5.05035838,2.60193548 C5.05035838,1.35483871 4.03588439,0.343870968 2.78446243,0.343870968 C1.53304046,0.343870968 0.518566474,1.35483871 0.518566474,2.60193548 Z" id="path-5"></path>
    </defs>
    <g id="Page-1" stroke="none" stroke-width="1" fill="none" fill-rule="evenodd">
        <g id="2018-landingpage-copy-12" transform="translate(-116.000000, -3884.000000)">
            <g id="logo-pink" transform="translate(116.000000, 3881.000000)">
                <g id="Group-14" transform="translate(0.000000, 0.522129)">
                    <path d="M46.7399954,21.9107742 L54.0005734,21.9107742 L54.0005734,22.4888387 C54.0005734,23.8049677 53.8451977,24.9688387 53.5337988,25.9823871 C53.2301688,26.9198065 52.7180763,27.7965806 51.9975214,28.6133548 C50.3667237,30.4430323 48.291163,31.357871 45.7727815,31.357871 C43.3146081,31.357871 41.2092671,30.4727097 39.4567584,28.7036774 C37.7042497,26.9269032 36.8276717,24.7952903 36.8276717,22.3075484 C36.8276717,19.7675484 37.7191399,17.6127097 39.5020763,15.8436774 C41.2850127,14.0669032 43.4550936,13.1785161 46.0116717,13.1785161 C47.3848046,13.1785161 48.6673017,13.457871 49.8578682,14.017871 C50.9959954,14.5772258 52.115348,15.4843226 53.2152786,16.7391613 L51.3261688,18.5423871 C49.8844116,16.6294839 48.1286659,15.6733548 46.0569896,15.6733548 C44.1983075,15.6733548 42.6393711,16.3120645 41.3801803,17.590129 C40.1203422,18.8449677 39.4910705,20.417871 39.4910705,22.3075484 C39.4910705,24.2585161 40.1928509,25.8649677 41.5964116,27.1275484 C42.908689,28.2991613 44.3310243,28.8856129 45.8634173,28.8856129 C47.1685734,28.8856129 48.3410127,28.4469032 49.3800879,27.5694839 C50.4198104,26.6849677 50.9998798,25.6269032 51.1215908,24.3946452 L46.7399954,24.3946452 L46.7399954,21.9107742 Z" id="Fill-1" fill="#E03D52"></path>
                    <path d="M67.918289,24.0995484 L70.4677457,26.6285806 C71.5903353,25.4640645 72.1516301,24.0240645 72.1516301,22.3079355 C72.1516301,20.4253548 71.5255954,18.8485806 70.2741734,17.5789032 C69.022104,16.3085806 67.467052,15.6730968 65.6083699,15.6730968 C63.7263815,15.6730968 62.1790983,16.3085806 60.9652254,17.5789032 C59.7435838,18.8414839 59.1330867,20.4401935 59.1330867,22.3756774 C59.1330867,24.266 59.7623584,25.8118065 61.0221965,27.0143871 C62.334474,28.2537419 63.8325549,28.8737419 65.5170867,28.8737419 C66.6629827,28.8737419 67.6981734,28.6130968 68.6239538,28.0911613 L64.4929017,24.0995484 L67.918289,24.0995484 Z M75.2131792,31.346 L71.8784277,31.346 L70.5014104,29.9401935 C69.0376416,30.8776129 67.4061965,31.346 65.6083699,31.346 C63.2790289,31.346 61.2118844,30.5601935 59.406289,28.9872903 C57.4407861,27.2563226 56.4586821,25.0447097 56.4586821,22.3530968 C56.4586821,19.7143871 57.3876994,17.5143871 59.2463815,15.7524516 C61.0526243,14.0440645 63.1845087,13.189871 65.6420347,13.189871 C67.8729711,13.189871 69.8721387,13.9382581 71.6395376,15.4350323 C73.7636532,17.2343871 74.8260347,19.582129 74.8260347,22.4776129 C74.8260347,24.746 73.9876532,26.7608387 72.3108902,28.522129 L75.2131792,31.346 Z" id="Fill-3" fill="#E03D52"></path>
                    <polygon id="Fill-5" fill="#E03D52" points="80.8118844 13.5186452 80.8118844 28.5450968 85.9781272 28.5450968 85.9781272 31.0289677 78.1601387 31.0289677 78.1601387 13.5186452"></polygon>
                    <mask id="mask-2" fill="white">
                        <use xlink:href="#path-1"></use>
                    </mask>
                    <g id="Clip-8"></g>
                    <path d="M88.0041618,31.0290323 L90.5646243,31.0290323 L90.5646243,19.9832258 L88.0041618,19.9832258 L88.0041618,31.0290323 Z M87.6170173,15.3896774 C87.6170173,14.943871 87.7801618,14.5580645 88.1064509,14.2329032 C88.4327399,13.9077419 88.8237688,13.7451613 89.2788902,13.7451613 C89.7411329,13.7451613 90.1360462,13.9077419 90.4623353,14.2329032 C90.7886243,14.5509677 90.9517688,14.94 90.9517688,15.4012903 C90.9517688,15.8625806 90.7886243,16.2554839 90.4623353,16.5806452 C90.143815,16.9058065 89.7527861,17.0683871 89.289896,17.0683871 C88.8270058,17.0683871 88.4327399,16.9058065 88.1064509,16.5806452 C87.7801618,16.2554839 87.6170173,15.8587097 87.6170173,15.3896774 L87.6170173,15.3896774 Z" id="Fill-7" fill="#E03D52" mask="url(#mask-2)"></path>
                    <path d="M96.4594497,22.3644516 L96.4594497,31.0289677 L93.8873341,31.0289677 L93.8873341,22.3644516 L92.9770913,22.3644516 L92.9770913,19.9831613 L93.8873341,19.9831613 L93.8873341,15.7186452 C93.8873341,14.3276774 94.1301087,13.3450968 94.6156578,12.7702581 C95.2837734,11.9689677 96.2548717,11.5683226 97.5289526,11.5683226 C97.984074,11.5683226 98.557022,11.7005806 99.2477965,11.9650968 L99.2477965,14.5734839 L98.9856,14.4373548 C98.432074,14.1573548 97.9769526,14.0173548 97.6202358,14.0173548 C97.1651145,14.0173548 96.8576,14.1799355 96.6983399,14.5050968 C96.5390798,14.8231613 96.4594497,15.4354194 96.4594497,16.3425161 L96.4594497,19.9831613 L99.2477965,19.9831613 L99.2477965,22.3644516 L96.4594497,22.3644516 Z" id="Fill-9" fill="#E03D52" mask="url(#mask-2)"></path>
                    <polygon id="Fill-10" fill="#E03D52" mask="url(#mask-2)" points="104.220661 28.9760645 99.2363376 19.9831613 102.206603 19.9831613 105.597679 26.3334839 108.761517 19.9831613 111.652153 19.9831613 102.820985 37.0392903 99.896037 37.0392903"></polygon>
                    <path d="M15.7324636,4.55883871 L2.33393305,12.267871 C1.40232861,12.804 0.647463584,14.0994839 0.647463584,15.1794839 L0.647463584,28.6569032 C0.647463584,29.7285161 1.39520724,31.0272258 2.33393305,31.5672258 L14.0459942,38.3065806 C14.9769512,38.8420645 16.4802073,38.8465806 17.4189331,38.3065806 L29.1309942,31.5672258 C30.0625986,31.0317419 30.8174637,29.7336774 30.8174637,28.6659355 L30.8174637,23.5252903 C30.8174637,22.4588387 29.9486567,21.5956129 28.8707406,21.5981935 L6.47403757,21.9162581" id="Stroke-11" stroke="#E03D52" stroke-width="1.29032258" mask="url(#mask-2)"></path>
                    <path d="M15.7195561,12.3996774 C21.1784231,12.3996774 25.6195792,16.8254839 25.6195792,22.266129 C25.6195792,27.706129 21.1784231,32.1325806 15.7195561,32.1325806 C10.260689,32.1325806 5.81888555,27.706129 5.81888555,22.266129 C5.81888555,16.8254839 10.260689,12.3996774 15.7195561,12.3996774" id="Stroke-12" stroke="#E03D52" stroke-width="1.42193548" mask="url(#mask-2)"></path>
                    <path d="M17.9984,4.89025806 C17.9984,6.13735484 16.983926,7.14832258 15.732504,7.14832258 C14.4810821,7.14832258 13.4666081,6.13735484 13.4666081,4.89025806 C13.4666081,3.64316129 14.4810821,2.63219355 15.732504,2.63219355 C16.983926,2.63219355 17.9984,3.64316129 17.9984,4.89025806" id="Fill-13" fill="#E03D52" mask="url(#mask-2)"></path>
                </g>
                <g id="Group-17" transform="translate(12.947977, 3.102774)">
                    <mask id="mask-4" fill="white">
                        <use xlink:href="#path-3"></use>
                    </mask>
                    <g id="Clip-16"></g>
                    <polygon id="Fill-15" fill="#E03D52" mask="url(#mask-4)" points="-1.99916763 7.07677419 7.56809249 7.07677419 7.56809249 -2.45741935 -1.99916763 -2.45741935"></polygon>
                </g>
                <path d="M17.9984,22.4789032 C17.9984,23.7266452 16.983926,24.7369677 15.732504,24.7369677 C14.4810821,24.7369677 13.4666081,23.7266452 13.4666081,22.4789032 C13.4666081,21.2318065 14.4810821,20.2208387 15.732504,20.2208387 C16.983926,20.2208387 17.9984,21.2318065 17.9984,22.4789032" id="Fill-18" fill="#E03D52"></path>
                <g id="Group-22" transform="translate(12.947977, 19.876968)">
                    <mask id="mask-6" fill="white">
                        <use xlink:href="#path-5"></use>
                    </mask>
                    <g id="Clip-21"></g>
                    <polygon id="Fill-20" fill="#E03D52" mask="url(#mask-6)" points="-1.99916763 7.36967742 7.56809249 7.36967742 7.56809249 -2.16451613 -1.99916763 -2.16451613"></polygon>
                </g>
                <g id="Group-31" transform="translate(7.121387, 5.038258)">
                    <path d="M0.272360694,22.5414839 C2.87684624,21.6737419 5.66389827,21.2040645 8.56100809,21.2040645 C11.4950197,21.2040645 14.3170312,21.686 16.9500023,22.5750323" id="Stroke-23" stroke="#E03D52" stroke-width="1.29032258"></path>
                    <path d="M16.9495491,12.2245806 C14.3411792,13.0949032 11.5495954,13.5665161 8.64795376,13.5665161 C5.71847399,13.5665161 2.90164162,13.085871 0.272554913,12.2000645" id="Stroke-25" stroke="#E03D52" stroke-width="1.29032258"></path>
                    <g id="Group-30" transform="translate(8.416185, 0.000000)">
                        <path d="M0.194931792,0.50516129 L0.194931792,27.616129" id="Fill-27" fill="#FFFFFF"></path>
                        <path d="M0.194931792,0.50516129 L0.194931792,27.616129" id="Stroke-29" stroke="#E03D52" stroke-width="1.30580645"></path>
                    </g>
                </g>
            </g>
        </g>
    </g>
</svg>